<svg width="30" height="30" fill="none" xmlns="http://www.w3.org/2000/svg"><circle cx="15" cy="15" r="14.5" stroke="#fff"/><path d="M15 12.9a2.1 2.1 0 100 4.2 2.1 2.1 0 000-4.2zm0-1.4a3.5 3.5 0 110 7 3.5 3.5 0 010-7zm4.55-.175a.875.875 0 11-1.75 0 .875.875 0 011.75 0zM15 9.4c-1.732 0-2.015.005-2.82.04-.55.027-.917.1-1.259.233a2.02 2.02 0 00-.756.492c-.219.212-.387.47-.493.756-.133.343-.206.71-.231 1.259-.037.773-.041 1.043-.041 2.82 0 1.732.005 2.015.04 2.82.027.548.1.917.232 1.258.12.305.26.524.492.756.236.235.455.376.756.492.345.134.714.208 1.26.233.773.037 1.043.041 2.82.041 1.732 0 2.015-.005 2.82-.04.548-.026.917-.1 1.258-.232.303-.119.524-.26.756-.492.236-.236.377-.455.493-.756.133-.345.207-.714.232-1.26.037-.773.041-1.043.041-2.82 0-1.732-.005-2.015-.04-2.82-.026-.548-.1-.917-.233-1.259a2.037 2.037 0 00-.492-.756 2.019 2.019 0 00-.756-.493c-.343-.133-.711-.206-1.259-.231-.773-.037-1.043-.041-2.82-.041zM15 8c1.902 0 2.14.007 2.885.042.746.035 1.253.152 1.7.325.462.178.851.42 1.24.808.356.35.632.773.808 1.24.172.446.29.954.325 1.7.033.746.042.983.042 2.885 0 1.902-.007 2.14-.042 2.885-.035.746-.153 1.253-.325 1.7-.176.467-.451.89-.808 1.24-.35.356-.773.632-1.24.808-.446.172-.954.29-1.7.325-.746.033-.983.042-2.885.042-1.902 0-2.14-.007-2.885-.042-.746-.035-1.253-.153-1.7-.325a3.423 3.423 0 01-1.24-.808 3.433 3.433 0 01-.808-1.24c-.173-.446-.29-.954-.325-1.7C8.009 17.14 8 16.902 8 15c0-1.902.007-2.14.042-2.885.035-.747.152-1.253.325-1.7.176-.467.451-.89.808-1.24.35-.357.773-.632 1.24-.808.447-.173.953-.29 1.7-.325C12.86 8.009 13.098 8 15 8z" fill="#fff"/></svg>