<svg width="30" height="30" fill="none" xmlns="http://www.w3.org/2000/svg"><circle cx="15" cy="15" r="14.5" stroke="#fff"/><path d="M22 10.425a5.53 5.53 0 01-1.65.476 3.012 3.012 0 001.263-1.675 5.564 5.564 0 01-1.824.734 2.83 2.83 0 00-1.63-.92 2.744 2.744 0 00-1.824.318 2.97 2.97 0 00-1.262 1.424 3.179 3.179 0 00-.178 1.94 7.828 7.828 0 01-3.28-.918 8.251 8.251 0 01-2.64-2.246c-.256.462-.39.988-.39 1.523 0 1.05.508 1.977 1.278 2.52a2.75 2.75 0 01-1.3-.379v.038c0 .7.23 1.377.65 1.918.42.541 1.004.913 1.654 1.051a2.747 2.747 0 01-1.298.052 3.03 3.03 0 001.021 1.506 2.78 2.78 0 001.662.598 5.661 5.661 0 01-2.008 1.073 5.48 5.48 0 01-2.244.18A7.824 7.824 0 0012.402 21c5.284 0 8.174-4.614 8.174-8.616 0-.13-.004-.262-.01-.391A6.021 6.021 0 0022 10.425z" fill="#fff"/></svg>