<svg width="88" height="74" fill="none" xmlns="http://www.w3.org/2000/svg"><path d="M35.24 11.661a.65.65 0 00-1.3 0h1.3zm-1.3 2.132a.65.65 0 101.3 0h-1.3zm1.3 40.512a.65.65 0 10-1.3 0h1.3zm-1.3 2.132a.65.65 0 101.3 0h-1.3zm21.644-20.672a.65.65 0 100-1.3v1.3zm-2.1-1.3a.65.65 0 100 1.3v-1.3zm-39.887 1.3a.65.65 0 100-1.3v1.3zm-2.1-1.3a.65.65 0 100 1.3v-1.3zm22.043 9.178v.65a.65.65 0 00.65-.65h-.65zm-2.225-.935l.464-.456-.464.456zm-13.52-13.731l-.463-.456a.65.65 0 000 .912l.463-.456zm4.453-4.522l.463-.456a.65.65 0 00-.926 0l.463.456zM33.54 35.924l-.463.456a.65.65 0 00.927 0l-.464-.456zM61.754 7.268l.463-.457a.65.65 0 00-.926 0l.463.457zm4.455 4.521l.463.457a.65.65 0 000-.913l-.463.456zM35.768 42.706l-.463-.456.463.456zm-2.228.936l.002-.65a.65.65 0 00-.652.65h.65zm23.934-31.985l.52-.389a.66.66 0 00-.039-.048l-.481.437zm3.821 5.128l.556-.337a.629.629 0 00-.035-.052l-.52.389zm-8.302-.625l.534-.371a.664.664 0 00-.049-.061l-.485.432zM33.539 7.397v.65h.001v-.65zm23.14 14.068l.575-.303a.633.633 0 00-.041-.068l-.534.371zm.105 20.846h.65-.65zm-9.298 0h-.65.65zm4.649-4.722v.65-.65zm-5.002 10.657l-.278-.587-.005.002.283.585zm-1.971 3.19h.65v-.003l-.65.003zm0 7.4h-.65.65zm2.325 2.36h.65a.65.65 0 00-.65-.65v.65zm0 9.443h-.65.65zM49.81 73v-.65.65zm4.648 0l.001-.65V73zm2.325-2.36h.65-.65zm0-9.444v-.65a.65.65 0 00-.65.65h.65zm2.324-9.761l-.65-.003v.003h.65zm-1.971-3.19l.282-.585-.004-.002-.278.587zm-5.002-1.213v-.65a.65.65 0 00-.617.445l.617.205zm18.596-4.72h.65a.65.65 0 00-.65-.65v.65zm-9.298 0h-.65.65zm4.648-4.723v.65-.65zm4.648 4.722h-.65c0 .36.292.65.65.65v-.65zm-9.65 5.935l-.278-.587-.005.002.283.585zm-1.971 3.19h.65v-.003l-.65.003zm2.325 9.76h.65a.65.65 0 00-.651-.65v.65zm0 9.443h-.65v.001h.65zM63.757 73v-.65.65zm4.649 0v-.65.65zm2.323-2.36h.65-.65zm0-9.444l.001-.65a.65.65 0 00-.65.65h.65zm2.326-2.36h.65-.65zm0-7.401l-.65-.003v.003h.65zm-1.972-3.19l.282-.585-.004-.002-.278.587zm-5.002-1.213v-.65a.65.65 0 00-.642.753l.642-.103zm18.594-4.72h.65v-.001h-.65zm-9.296 0h-.65.65zm4.648-4.723v.65-.65zm-5.002 10.657l-.278-.587-.005.002.283.585zm-1.971 3.19h.65v-.003l-.65.003zm0 7.4h-.65.65zm2.325 2.36h.65a.65.65 0 00-.651-.65v.65zm0 9.443h-.65v.001h.65zM77.701 73v-.65.65zm4.65 0v-.65.65zm2.323-2.36h.65-.65zm0-9.444v-.65a.65.65 0 00-.65.65h.65zM87 58.836h.65H87zm0-7.401l-.65-.003v.003H87zm-1.971-3.19l.282-.585-.004-.002-.278.587zm-5.002-1.213v-.65a.65.65 0 00-.643.748l.643-.098zM33.94 11.662v2.13h1.3v-2.13h-1.3zm0 42.643v2.132h1.3v-2.132h-1.3zm21.643-19.84h-2.1v1.3h2.1v-1.3zm-41.987 0h-2.1v1.3h2.1v-1.3zm19.943 8.528a2.457 2.457 0 01-1.761-.74l-.928.91a3.757 3.757 0 002.69 1.13v-1.3zm-1.762-.742l-13.52-13.73-.926.912 13.52 13.73.926-.911zm-13.52-12.818l4.453-4.522-.926-.912-4.453 4.522.926.912zm3.527-4.522L33.077 36.38l.927-.912-11.293-11.47-.926.913zm12.22 11.469L62.217 7.724l-.926-.912-28.214 28.656.927.912zM61.29 7.724l4.455 4.522.926-.913-4.455-4.522-.926.913zm4.455 3.61L35.305 42.25l.926.912 30.441-30.917-.926-.913zM35.305 42.25a2.49 2.49 0 01-.81.55l.502 1.2a3.787 3.787 0 001.233-.838l-.927-.911zm-.81.55a2.443 2.443 0 01-.953.191l-.003 1.3c.5.001.996-.098 1.459-.292l-.504-1.199zm-1.605.841v.002h1.3v-.002h-1.3zM57.955 11.22C51.893 4.54 43.199.35 33.539.35v1.3c9.275 0 17.624 4.021 23.453 10.444l.963-.874zM33.539.35C15.201.35.35 15.448.35 34.049h1.3C1.65 16.147 15.938 1.65 33.54 1.65V.35zM.35 34.049c0 18.6 14.85 33.7 33.19 33.7v-1.3c-17.602 0-31.89-14.498-31.89-32.4H.35zm33.19 33.7c18.34 0 33.19-15.1 33.19-33.7h-1.3c0 17.902-14.287 32.4-31.89 32.4v1.3zm33.19-33.7c0-6.45-1.784-12.478-4.879-17.6l-1.112.672c2.975 4.924 4.692 10.72 4.692 16.928h1.3zm-4.914-17.653l-3.821-5.128-1.042.777 3.82 5.128 1.043-.777zm-8.338-.668a26.871 26.871 0 00-9.031-6.642l-.534 1.186a25.57 25.57 0 018.594 6.32l.971-.864zm-9.031-6.642a26.468 26.468 0 00-10.908-2.34l.001 1.3a25.168 25.168 0 0110.373 2.226l.534-1.186zm-10.908-2.34C18.677 6.747 6.647 18.98 6.647 34.05h1.3c0-14.371 11.467-26.002 25.592-26.002v-1.3zM6.647 34.05c0 15.07 12.03 27.303 26.892 27.303v-1.3c-14.125 0-25.592-11.631-25.592-26.003h-1.3zm26.892 27.303c14.863 0 26.893-12.232 26.893-27.303h-1.3c0 14.372-11.467 26.002-25.593 26.002v1.3zM60.432 34.05c0-4.66-1.15-9.048-3.178-12.887l-1.15.607a26.218 26.218 0 013.028 12.28h1.3zm-3.22-12.955l-3.685-5.305-1.068.742 3.686 5.305 1.068-.742zm-1.078 21.217c0 2.258-1.801 4.072-4 4.072v1.3c2.935 0 5.3-2.414 5.3-5.372h-1.3zm-4 4.072a3.955 3.955 0 01-2.822-1.188l-.926.912a5.255 5.255 0 003.749 1.576v-1.3zm-2.822-1.188a4.117 4.117 0 01-1.176-2.885l-1.3.002a5.418 5.418 0 001.55 3.795l.926-.912zm-1.176-2.884c0-2.258 1.801-4.072 3.998-4.072v-1.3c-2.933 0-5.298 2.414-5.298 5.372h1.3zm4-4.072c.522 0 1.04.104 1.525.308l.503-1.199a5.225 5.225 0 00-2.03-.409l.001 1.3zm1.525.308a3.99 3.99 0 011.296.88l.927-.913a5.292 5.292 0 00-1.72-1.166l-.503 1.199zm1.296.88c.372.377.668.826.87 1.322l1.204-.492a5.382 5.382 0 00-1.147-1.742l-.927.912zm.87 1.322c.202.495.306 1.026.307 1.563l1.3-.002a5.45 5.45 0 00-.403-2.053l-1.204.492zm-3.692 5.634c-2.093 0-3.962.652-5.28 1.276l.556 1.175c1.219-.577 2.892-1.151 4.724-1.151v-1.3zM46.85 47.66a4.122 4.122 0 00-1.711 1.547l1.105.683c.285-.46.692-.828 1.172-1.06l-.566-1.17zm-1.711 1.547a4.207 4.207 0 00-.627 2.23l1.3-.005a2.908 2.908 0 01.432-1.542l-1.105-.683zm-.627 2.228v7.4h1.3v-7.4h-1.3zm0 7.4c0 .796.312 1.56.869 2.126l.926-.912a1.735 1.735 0 01-.495-1.215l-1.3.002zm.869 2.126a2.954 2.954 0 002.106.885v-1.3c-.44 0-.865-.177-1.18-.497l-.926.912zm1.456.235v9.442h1.3v-9.442h-1.3zm0 9.443c0 .394.076.784.225 1.149l1.204-.491a1.75 1.75 0 01-.13-.66l-1.3.002zm.225 1.149c.15.364.367.696.643.976l.926-.912a1.715 1.715 0 01-.365-.555l-1.204.49zm.643.976c.276.28.604.503.965.655l.504-1.198a1.67 1.67 0 01-.543-.369l-.926.912zm.965.655c.362.152.75.23 1.142.23l-.001-1.3c-.218 0-.435-.043-.637-.128l-.504 1.198zm1.141.23h4.648v-1.3h-4.648v1.3zm4.648 0c.392 0 .78-.078 1.141-.23l-.503-1.198a1.637 1.637 0 01-.637.128l-.001 1.3zm1.141-.23c.362-.152.69-.374.966-.655l-.927-.912c-.156.159-.34.284-.542.369l.503 1.198zm.966-.655c.275-.28.494-.612.642-.976l-1.203-.491c-.085.208-.21.397-.366.555l.927.912zm.642-.976c.15-.365.226-.755.226-1.15h-1.3c0 .226-.044.45-.13.659l1.204.49zm.226-1.15v-9.443h-1.3v9.443h1.3zm-.65-8.793c.792 0 1.548-.32 2.105-.885l-.926-.912c-.315.32-.74.497-1.179.497v1.3zm2.105-.885a3.035 3.035 0 00.869-2.124l-1.3-.002c0 .457-.18.894-.495 1.214l.926.912zm.869-2.125v-7.401h-1.3v7.401h1.3zm0-7.398a4.207 4.207 0 00-.627-2.231l-1.106.683c.285.46.436.996.433 1.542l1.3.006zm-.627-2.231a4.122 4.122 0 00-1.712-1.547l-.565 1.17c.48.233.887.6 1.171 1.06l1.106-.683zm-1.716-1.55c-1.317-.622-3.187-1.275-5.28-1.275v1.3c1.832 0 3.506.575 4.724 1.15l.556-1.174zm-5.897-.83l1.233.41-1.233-.41zm18.563-4.516c0 2.258-1.8 4.072-4 4.072v1.3c2.936 0 5.3-2.414 5.3-5.372h-1.3zm-4 4.072a3.925 3.925 0 01-1.526-.308l-.504 1.199c.644.27 1.334.41 2.03.409v-1.3zm-1.526-.308a3.99 3.99 0 01-1.296-.88l-.927.913a5.29 5.29 0 001.72 1.166l.503-1.199zm-1.296-.88a4.082 4.082 0 01-.87-1.321l-1.203.49a5.382 5.382 0 001.146 1.744l.927-.912zm-.87-1.321a4.145 4.145 0 01-.306-1.563h-1.3c0 .705.137 1.403.403 2.054l1.203-.491zm-.306-1.563c0-2.258 1.8-4.072 3.998-4.072v-1.3c-2.935 0-5.298 2.415-5.298 5.372h1.3zm3.999-4.072c.523 0 1.041.104 1.525.308l.504-1.199a5.224 5.224 0 00-2.03-.409v1.3zm1.525.308c.484.203.925.502 1.296.88l.927-.912a5.288 5.288 0 00-1.72-1.167l-.503 1.199zm1.296.88c.372.377.668.826.87 1.322l1.204-.492a5.38 5.38 0 00-1.147-1.742l-.927.912zm.87 1.322c.202.495.306 1.026.306 1.563l1.3-.001c0-.705-.137-1.402-.403-2.054l-1.203.492zm.957 2.212v-1.3 1.3zm-4.649 3.422c-2.092 0-3.962.652-5.28 1.276l.556 1.175c1.219-.577 2.892-1.151 4.724-1.151v-1.3zm-5.285 1.278a4.123 4.123 0 00-1.711 1.547l1.105.683c.285-.46.692-.828 1.172-1.06l-.566-1.17zm-1.711 1.547a4.208 4.208 0 00-.627 2.23l1.3-.005a2.909 2.909 0 01.432-1.542l-1.105-.683zm-.627 2.228v7.4h1.3v-7.4h-1.3zm0 7.4c0 .395.077.785.226 1.15l1.203-.492a1.75 1.75 0 01-.13-.659l-1.3.002zm.226 1.15c.149.364.367.696.643.976l.926-.912a1.716 1.716 0 01-.366-.556l-1.203.492zm.643.976c.275.28.603.503.965.655l.503-1.198a1.67 1.67 0 01-.542-.369l-.926.912zm.965.655c.361.152.75.23 1.141.23l-.001-1.3c-.218 0-.434-.043-.637-.128l-.503 1.198zm.49-.42v9.442h1.3v-9.442h-1.3zm0 9.443c.002.795.313 1.56.87 2.125l.926-.912a1.735 1.735 0 01-.495-1.215l-1.3.002zm.87 2.125a2.954 2.954 0 002.106.885l-.001-1.3c-.44 0-.864-.177-1.18-.497l-.925.912zm2.105.885h4.649v-1.3h-4.649v1.3zm4.648 0c.792 0 1.55-.32 2.106-.885l-.926-.912c-.315.32-.74.497-1.18.497v1.3zm2.106-.885c.557-.565.868-1.33.868-2.125l-1.3-.001c0 .457-.18.894-.494 1.214l.926.912zm.868-2.126v-9.443h-1.3v9.443h1.3zm-.65-8.793c.391 0 .78-.078 1.141-.23l-.503-1.198a1.638 1.638 0 01-.637.128l-.002 1.3zm1.141-.23a2.97 2.97 0 00.965-.654l-.925-.912a1.67 1.67 0 01-.543.368l.503 1.198zm.965-.654c.276-.28.495-.612.644-.976l-1.204-.492c-.085.209-.21.397-.365.556l.925.912zm.644-.976a3.06 3.06 0 00.226-1.15h-1.3c0 .226-.044.45-.13.658l1.204.492zm.226-1.15v-7.401h-1.3v7.401h1.3zm0-7.398a4.208 4.208 0 00-.627-2.232l-1.106.684c.285.46.436.996.433 1.542l1.3.006zm-.627-2.232a4.124 4.124 0 00-1.713-1.546l-.565 1.17c.48.232.887.6 1.172 1.06l1.106-.684zm-1.717-1.548c-1.317-.623-3.188-1.276-5.28-1.276v1.3c1.831 0 3.506.575 4.724 1.15l.556-1.174zm-5.922-.523l1.284-.205v-.001l-1.284.206zm18.586-4.824c0 2.259-1.799 4.072-3.998 4.072v1.3c2.936 0 5.298-2.415 5.298-5.372h-1.3zm-3.999 4.072a3.925 3.925 0 01-1.525-.308l-.504 1.199c.644.27 1.334.41 2.03.409v-1.3zm-1.525-.308a3.99 3.99 0 01-1.296-.88l-.927.913a5.304 5.304 0 001.72 1.166l.503-1.199zm-1.296-.88a4.082 4.082 0 01-.87-1.321l-1.203.49a5.382 5.382 0 001.146 1.744l.927-.912zm-.87-1.321a4.145 4.145 0 01-.306-1.563h-1.3c0 .705.137 1.403.403 2.054l1.203-.491zm-.306-1.563c0-2.259 1.799-4.072 3.998-4.072v-1.3c-2.936 0-5.298 2.415-5.298 5.372h1.3zm3.999-4.072c.523 0 1.04.104 1.525.308l.504-1.199a5.224 5.224 0 00-2.03-.409v1.3zm1.525.308a3.99 3.99 0 011.296.88l.927-.912a5.288 5.288 0 00-1.72-1.167l-.503 1.199zm1.296.88c.372.377.668.826.87 1.322l1.203-.492a5.382 5.382 0 00-1.146-1.742l-.927.912zm.87 1.322c.202.495.306 1.026.306 1.563l1.3-.001c0-.705-.137-1.402-.403-2.054l-1.203.492zm-3.692 5.634c-2.092 0-3.962.652-5.28 1.276l.556 1.175c1.219-.577 2.892-1.151 4.724-1.151v-1.3zm-5.285 1.278a4.122 4.122 0 00-1.711 1.547l1.105.683c.285-.46.692-.828 1.172-1.06l-.566-1.17zm-1.711 1.547a4.207 4.207 0 00-.627 2.23l1.3-.005a2.908 2.908 0 01.432-1.542l-1.105-.683zm-.627 2.228v7.4h1.3v-7.4h-1.3zm0 7.4c0 .395.077.785.226 1.15l1.203-.492a1.749 1.749 0 01-.13-.659l-1.3.002zm.226 1.15c.148.364.367.696.642.976l.927-.912a1.715 1.715 0 01-.366-.556l-1.203.492zm.642.976c.276.28.604.503.966.655l.503-1.198a1.67 1.67 0 01-.542-.369l-.927.912zm.966.655c.361.152.75.23 1.141.23l-.001-1.3c-.218 0-.434-.043-.637-.128l-.503 1.198zm.49-.42v9.442h1.3v-9.442h-1.3zm0 9.443c.002.795.313 1.56.869 2.125l.926-.912a1.735 1.735 0 01-.495-1.215l-1.3.002zm.869 2.125a2.954 2.954 0 002.105.885v-1.3c-.44 0-.864-.177-1.179-.497l-.926.912zm2.105.885h4.65v-1.3h-4.65v1.3zm4.65 0c.791 0 1.548-.32 2.105-.885l-.926-.912c-.315.32-.74.497-1.18.497v1.3zm2.105-.885c.556-.565.868-1.33.868-2.125l-1.3-.001c0 .457-.18.894-.494 1.214l.926.912zm.868-2.126v-9.443h-1.3v9.443h1.3zm-.65-8.793c.791 0 1.549-.319 2.106-.884l-.926-.913c-.315.32-.74.497-1.18.497v1.3zm2.106-.884c.556-.565.868-1.33.869-2.125l-1.3-.002c0 .458-.18.894-.495 1.214l.926.913zm.869-2.126v-7.401h-1.3v7.401h1.3zm0-7.398a4.208 4.208 0 00-.627-2.231l-1.106.683c.285.46.436.996.433 1.542l1.3.006zm-.627-2.231a4.122 4.122 0 00-1.712-1.547l-.565 1.17c.48.233.887.6 1.171 1.06l1.106-.683zm-1.716-1.55c-1.317-.622-3.188-1.275-5.28-1.275v1.3c1.831 0 3.506.575 4.724 1.15l.556-1.174zm-5.923-.527l1.285-.195v-.001l-1.285.196z" fill="#62E0D9"/></svg>