<svg width="14" height="14" viewBox="0 0 14 14" fill="none" xmlns="http://www.w3.org/2000/svg">
<path fill-rule="evenodd" clip-rule="evenodd" d="M14 7C14 10.866 10.866 14 7 14C3.13403 14 0 10.866 0 7C0 3.13403 3.13403 0 7 0C10.866 0 14 3.13403 14 7ZM3.75 7C3.75 6.86194 3.86182 6.75 4 6.75H9.28735L6.09375 4.19519C5.98608 4.10895 5.96851 3.95166 6.05469 3.84381C6.09131 3.79828 6.14038 3.76886 6.19312 3.75653C6.26514 3.73975 6.34399 3.75494 6.40625 3.80481L10.1543 6.80328C10.1558 6.8045 10.1577 6.80579 10.1592 6.80707C10.2148 6.85291 10.25 6.92236 10.25 7C10.25 7.07874 10.2131 7.14935 10.1562 7.19519C10.1555 7.1958 10.155 7.19611 10.1543 7.19672L6.40625 10.1952C6.29834 10.2815 6.14111 10.264 6.05469 10.1562C5.96851 10.0483 5.98608 9.89105 6.09375 9.80481L9.28735 7.25H4C3.86182 7.25 3.75 7.13806 3.75 7Z" fill="#65E2DD"/>
</svg>
