<svg width="30" height="30" viewBox="0 0 30 30" fill="none" xmlns="http://www.w3.org/2000/svg">
<circle cx="15" cy="15" r="14.5" stroke="white"/>
<path d="M15 12.9C14.443 12.9 13.9089 13.1212 13.5151 13.5151C13.1212 13.9089 12.9 14.443 12.9 15C12.9 15.557 13.1212 16.0911 13.5151 16.4849C13.9089 16.8788 14.443 17.1 15 17.1C15.557 17.1 16.0911 16.8788 16.4849 16.4849C16.8788 16.0911 17.1 15.557 17.1 15C17.1 14.443 16.8788 13.9089 16.4849 13.5151C16.0911 13.1212 15.557 12.9 15 12.9ZM15 11.5C15.9283 11.5 16.8185 11.8687 17.4749 12.5251C18.1313 13.1815 18.5 14.0717 18.5 15C18.5 15.9283 18.1313 16.8185 17.4749 17.4749C16.8185 18.1313 15.9283 18.5 15 18.5C14.0717 18.5 13.1815 18.1313 12.5251 17.4749C11.8687 16.8185 11.5 15.9283 11.5 15C11.5 14.0717 11.8687 13.1815 12.5251 12.5251C13.1815 11.8687 14.0717 11.5 15 11.5V11.5ZM19.55 11.325C19.55 11.5571 19.4578 11.7796 19.2937 11.9437C19.1296 12.1078 18.9071 12.2 18.675 12.2C18.4429 12.2 18.2204 12.1078 18.0563 11.9437C17.8922 11.7796 17.8 11.5571 17.8 11.325C17.8 11.0929 17.8922 10.8704 18.0563 10.7063C18.2204 10.5422 18.4429 10.45 18.675 10.45C18.9071 10.45 19.1296 10.5422 19.2937 10.7063C19.4578 10.8704 19.55 11.0929 19.55 11.325V11.325ZM15 9.4C13.2682 9.4 12.9854 9.4049 12.1797 9.4406C11.6309 9.4665 11.2627 9.54 10.9211 9.673C10.6173 9.7906 10.3982 9.9313 10.1651 10.1651C9.946 10.3768 9.77755 10.6352 9.6723 10.9211C9.5393 11.2641 9.4658 11.6316 9.4406 12.1797C9.4042 12.9525 9.4 13.2227 9.4 15C9.4 16.7318 9.4049 17.0146 9.4406 17.8203C9.4665 18.3684 9.54 18.7373 9.6723 19.0782C9.7913 19.3827 9.9313 19.6018 10.1637 19.8342C10.3996 20.0694 10.6187 20.2101 10.9197 20.3263C11.2655 20.46 11.6337 20.5342 12.1797 20.5594C12.9525 20.5958 13.2227 20.6 15 20.6C16.7318 20.6 17.0146 20.5951 17.8203 20.5594C18.3677 20.5335 18.7366 20.46 19.0782 20.3277C19.3813 20.2094 19.6018 20.0687 19.8342 19.8363C20.0701 19.6004 20.2108 19.3813 20.327 19.0803C20.46 18.7352 20.5342 18.3663 20.5594 17.8203C20.5958 17.0475 20.6 16.7773 20.6 15C20.6 13.2682 20.5951 12.9854 20.5594 12.1797C20.5335 11.6323 20.46 11.2627 20.327 10.9211C20.2215 10.6355 20.0534 10.3772 19.8349 10.1651C19.6233 9.94589 19.3649 9.77742 19.0789 9.6723C18.7359 9.5393 18.3677 9.4658 17.8203 9.4406C17.0475 9.4042 16.7773 9.4 15 9.4ZM15 8C16.9019 8 17.1392 8.007 17.8854 8.042C18.6309 8.077 19.1384 8.1939 19.585 8.3675C20.047 8.5453 20.4362 8.7861 20.8254 9.1746C21.1813 9.52453 21.4568 9.94781 21.6325 10.415C21.8054 10.8609 21.923 11.3691 21.958 12.1146C21.9909 12.8608 22 13.0981 22 15C22 16.9019 21.993 17.1392 21.958 17.8854C21.923 18.6309 21.8054 19.1384 21.6325 19.585C21.4573 20.0524 21.1818 20.4758 20.8254 20.8254C20.4754 21.1812 20.0521 21.4566 19.585 21.6325C19.1391 21.8054 18.6309 21.923 17.8854 21.958C17.1392 21.9909 16.9019 22 15 22C13.0981 22 12.8608 21.993 12.1146 21.958C11.3691 21.923 10.8616 21.8054 10.415 21.6325C9.94763 21.4571 9.52427 21.1817 9.1746 20.8254C8.81858 20.4755 8.54315 20.0522 8.3675 19.585C8.1939 19.1391 8.077 18.6309 8.042 17.8854C8.0091 17.1392 8 16.9019 8 15C8 13.0981 8.007 12.8608 8.042 12.1146C8.077 11.3684 8.1939 10.8616 8.3675 10.415C8.54267 9.94753 8.81816 9.52412 9.1746 9.1746C9.52437 8.81846 9.9477 8.54301 10.415 8.3675C10.8616 8.1939 11.3684 8.077 12.1146 8.042C12.8608 8.0091 13.0981 8 15 8Z" fill="white"/>
</svg>
