<svg width="30" height="30" viewBox="0 0 30 30" fill="none" xmlns="http://www.w3.org/2000/svg">
<circle cx="15" cy="15" r="14.5" stroke="white"/>
<path d="M21.9993 10.4245C21.475 10.669 20.9189 10.8296 20.3496 10.901C20.9497 10.5226 21.3988 9.92712 21.6133 9.22551C21.0501 9.57884 20.4327 9.82647 19.7891 9.96042C19.3569 9.47283 18.7839 9.14945 18.1593 9.04057C17.5347 8.93169 16.8935 9.0434 16.3353 9.35833C15.7772 9.67327 15.3334 10.1738 15.0729 10.7821C14.8124 11.3903 14.7498 12.0723 14.8949 12.7219C13.7528 12.6616 12.6355 12.3487 11.6156 11.8036C10.5956 11.2585 9.69583 10.4934 8.97459 9.55784C8.71929 10.0201 8.58513 10.5456 8.58585 11.0805C8.58585 12.1304 9.09272 13.0579 9.86332 13.6009C9.40729 13.5858 8.96129 13.456 8.5625 13.2223V13.2599C8.56264 13.9591 8.79215 14.6368 9.21212 15.178C9.63209 15.7191 10.2167 16.0906 10.8668 16.2292C10.4434 16.3502 9.99952 16.368 9.56868 16.2814C9.75197 16.8832 10.1092 17.4096 10.5904 17.7867C11.0715 18.1639 11.6526 18.373 12.2521 18.3847C11.6562 18.878 10.974 19.2427 10.2444 19.4579C9.51482 19.6731 8.75215 19.7345 8 19.6388C9.31298 20.529 10.8414 21.0015 12.4025 21C17.6861 21 20.5756 16.3856 20.5756 12.3838C20.5756 12.2535 20.5721 12.1217 20.5666 11.9928C21.129 11.5643 21.6144 11.0335 22 10.4253L21.9993 10.4245Z" fill="white"/>
</svg>
