<svg width="88" height="74" viewBox="0 0 88 74" fill="none" xmlns="http://www.w3.org/2000/svg">
<path d="M35.2406 11.6611C35.2406 11.3022 34.9496 11.0111 34.5906 11.0111C34.2316 11.0111 33.9406 11.3022 33.9406 11.6611H35.2406ZM33.9406 13.7927C33.9406 14.1517 34.2316 14.4427 34.5906 14.4427C34.9496 14.4427 35.2406 14.1517 35.2406 13.7927H33.9406ZM35.2406 54.3046C35.2406 53.9456 34.9496 53.6546 34.5906 53.6546C34.2316 53.6546 33.9406 53.9456 33.9406 54.3046H35.2406ZM33.9406 56.4373C33.9406 56.7963 34.2316 57.0873 34.5906 57.0873C34.9496 57.0873 35.2406 56.7963 35.2406 56.4373H33.9406ZM55.5841 35.765C55.9431 35.765 56.2341 35.474 56.2341 35.115C56.2341 34.756 55.9431 34.465 55.5841 34.465V35.765ZM53.4848 34.465C53.1258 34.465 52.8348 34.756 52.8348 35.115C52.8348 35.474 53.1258 35.765 53.4848 35.765V34.465ZM13.5971 35.765C13.9561 35.765 14.2471 35.474 14.2471 35.115C14.2471 34.756 13.9561 34.465 13.5971 34.465V35.765ZM11.4968 34.465C11.1378 34.465 10.8468 34.756 10.8468 35.115C10.8468 35.474 11.1378 35.765 11.4968 35.765V34.465ZM33.5404 43.6435V44.2935C33.8994 44.2935 34.1904 44.0025 34.1904 43.6435H33.5404ZM31.315 42.7076L31.7789 42.2523L31.7781 42.2515L31.315 42.7076ZM17.7948 28.9768L17.3317 28.5207C17.0825 28.7737 17.0825 29.1798 17.3316 29.4329L17.7948 28.9768ZM22.2478 24.4549L22.7109 23.9989C22.5888 23.8748 22.4219 23.8049 22.2478 23.8049C22.0737 23.8049 21.9068 23.8748 21.7846 23.9988L22.2478 24.4549ZM33.5404 35.9237L33.0773 36.3797C33.1995 36.5038 33.3663 36.5737 33.5405 36.5737C33.7146 36.5737 33.8815 36.5038 34.0036 36.3797L33.5404 35.9237ZM61.754 7.26755L62.217 6.81136C62.0948 6.68734 61.928 6.61752 61.7539 6.61755C61.5798 6.61757 61.413 6.68745 61.2908 6.81152L61.754 7.26755ZM66.2091 11.7894L66.6722 12.2455C66.9214 11.9924 66.9213 11.5862 66.6721 11.3332L66.2091 11.7894ZM35.768 42.7065L35.3048 42.2505L35.3045 42.2508L35.768 42.7065ZM33.5404 43.6424L33.5417 42.9924C33.3691 42.9921 33.2034 43.0604 33.0813 43.1824C32.9591 43.3043 32.8904 43.4698 32.8904 43.6424H33.5404ZM57.4737 11.6569L57.9948 11.2685C57.9823 11.2517 57.969 11.2356 57.955 11.2201L57.4737 11.6569ZM61.2951 16.7845L61.8514 16.4484C61.8406 16.4304 61.8288 16.413 61.8162 16.3961L61.2951 16.7845ZM52.9928 16.1599L53.5266 15.789C53.5117 15.7676 53.4956 15.7472 53.4783 15.7277L52.9928 16.1599ZM33.5394 7.39689V8.04689L33.5403 8.04689L33.5394 7.39689ZM56.6788 21.4652L57.2535 21.1617C57.2413 21.1384 57.2276 21.1159 57.2126 21.0943L56.6788 21.4652ZM56.7839 42.3111L57.4339 42.3111L57.4339 42.3105L56.7839 42.3111ZM47.4862 42.3111L46.8362 42.3111L46.8362 42.3116L47.4862 42.3111ZM52.1345 37.5894L52.1345 38.2394L52.1351 38.2394L52.1345 37.5894ZM47.133 48.2463L46.8548 47.6588L46.8502 47.6611L47.133 48.2463ZM45.1618 51.4358L45.8118 51.4358L45.8118 51.4328L45.1618 51.4358ZM45.1618 58.836L44.5118 58.836L44.5118 58.8368L45.1618 58.836ZM47.4865 61.1968H48.1365C48.1365 61.0244 48.068 60.859 47.946 60.7371C47.8241 60.6152 47.6587 60.5467 47.4862 60.5468L47.4865 61.1968ZM47.4865 70.6391L46.8365 70.6391L46.8365 70.6397L47.4865 70.6391ZM49.8112 73L49.8112 72.35L49.8106 72.35L49.8112 73ZM54.4595 73L54.4601 72.35H54.4595V73ZM56.7842 70.6391L57.4342 70.6397V70.6391H56.7842ZM56.7842 61.1958L56.7842 60.5458C56.6118 60.5458 56.4465 60.6142 56.3246 60.7361C56.2027 60.858 56.1342 61.0234 56.1342 61.1958H56.7842ZM59.1079 51.4348L58.4579 51.4317V51.4348H59.1079ZM57.1367 48.2453L57.4195 47.66L57.4146 47.6577L57.1367 48.2453ZM52.1348 47.0317V46.3817C51.8548 46.3817 51.6062 46.5611 51.518 46.8269L52.1348 47.0317ZM70.7305 42.3111H71.3805C71.3805 41.9521 71.0895 41.6611 70.7305 41.6611V42.3111ZM61.4328 42.3111L60.7828 42.3111L60.7828 42.3115L61.4328 42.3111ZM66.0811 37.5894L66.0811 38.2394L66.0817 38.2394L66.0811 37.5894ZM70.7295 42.3111L70.0795 42.3115C70.0797 42.6703 70.3706 42.9611 70.7295 42.9611V42.3111ZM61.0791 48.2463L60.801 47.6588L60.7963 47.6611L61.0791 48.2463ZM59.1079 51.4358L59.7579 51.4359L59.7579 51.4328L59.1079 51.4358ZM61.4326 61.1968H62.0826C62.0826 61.0243 62.0141 60.8589 61.892 60.737C61.77 60.6151 61.6045 60.5467 61.432 60.5468L61.4326 61.1968ZM61.4326 70.6391L60.7826 70.6391L60.7826 70.64L61.4326 70.6391ZM63.7573 73L63.7573 72.35L63.757 72.35L63.7573 73ZM68.4057 73L68.4059 72.35H68.4057V73ZM70.7293 70.6391L71.3793 70.6397V70.6391H70.7293ZM70.7293 61.1958L70.7302 60.5458C70.5576 60.5455 70.3921 60.6139 70.27 60.7358C70.1479 60.8578 70.0793 61.0232 70.0793 61.1958H70.7293ZM73.055 58.836L73.705 58.8368V58.836H73.055ZM73.055 51.4348L72.405 51.4318V51.4348H73.055ZM71.0828 48.2453L71.3654 47.6599L71.3607 47.6577L71.0828 48.2453ZM66.081 47.0317V46.3817C65.8906 46.3817 65.7098 46.4652 65.5863 46.6101C65.4628 46.7549 65.409 46.9467 65.4392 47.1346L66.081 47.0317ZM84.6753 42.3111L85.3253 42.3111L85.3253 42.3106L84.6753 42.3111ZM75.3787 42.3111L74.7287 42.3111L74.7287 42.3115L75.3787 42.3111ZM80.027 37.5894L80.027 38.2394L80.0276 38.2394L80.027 37.5894ZM75.025 48.2463L74.7468 47.6588L74.7422 47.6611L75.025 48.2463ZM73.0538 51.4358L73.7038 51.4358L73.7038 51.4328L73.0538 51.4358ZM73.0538 58.836L72.4038 58.836L72.4038 58.8365L73.0538 58.836ZM75.3785 61.1968H76.0285C76.0285 61.0243 75.9599 60.8589 75.8379 60.737C75.7159 60.6151 75.5504 60.5467 75.3779 60.5468L75.3785 61.1968ZM75.3785 70.6391L74.7285 70.6391L74.7285 70.64L75.3785 70.6391ZM77.7022 73L77.7022 72.35L77.7022 72.35L77.7022 73ZM82.3515 73L82.3518 72.35H82.3515V73ZM84.6752 70.6391L85.3252 70.6397V70.6391H84.6752ZM84.6752 61.1958L84.6758 60.5458C84.5033 60.5456 84.3378 60.614 84.2158 60.7359C84.0937 60.8578 84.0252 61.0233 84.0252 61.1958H84.6752ZM86.9999 58.836L87.6499 58.8368V58.836H86.9999ZM86.9999 51.4348L86.3499 51.4317V51.4348H86.9999ZM85.0287 48.2453L85.3115 47.66L85.3066 47.6577L85.0287 48.2453ZM80.0268 47.0317V46.3817C79.8373 46.3817 79.6572 46.4645 79.5338 46.6082C79.4103 46.752 79.3557 46.9425 79.3843 47.1298L80.0268 47.0317ZM33.9406 11.6611V13.7927H35.2406V11.6611H33.9406ZM33.9406 54.3046V56.4373H35.2406V54.3046H33.9406ZM55.5841 34.465H53.4848V35.765H55.5841V34.465ZM13.5971 34.465H11.4968V35.765H13.5971V34.465ZM33.5404 42.9935C32.9019 42.9935 32.265 42.7476 31.7789 42.2523L30.851 43.1628C31.5909 43.9168 32.5664 44.2935 33.5404 44.2935V42.9935ZM31.7781 42.2515L18.258 28.5208L17.3316 29.4329L30.8518 43.1636L31.7781 42.2515ZM18.2579 29.4329L22.7109 24.911L21.7846 23.9988L17.3317 28.5207L18.2579 29.4329ZM21.7846 24.911L33.0773 36.3797L34.0036 35.4676L22.7109 23.9989L21.7846 24.911ZM34.0036 36.3797L62.2172 7.72357L61.2908 6.81152L33.0773 35.4677L34.0036 36.3797ZM61.291 7.72373L65.746 12.2456L66.6721 11.3332L62.217 6.81136L61.291 7.72373ZM65.7459 11.3334L35.3048 42.2505L36.2311 43.1626L66.6722 12.2455L65.7459 11.3334ZM35.3045 42.2508C35.072 42.4872 34.7965 42.6741 34.4941 42.8011L34.9977 43.9996C35.4598 43.8055 35.879 43.5207 36.2314 43.1622L35.3045 42.2508ZM34.4941 42.8011C34.1918 42.9282 33.8681 42.9931 33.5417 42.9924L33.5392 44.2924C34.0399 44.2934 34.5355 44.1938 34.9977 43.9996L34.4941 42.8011ZM32.8904 43.6424V43.6435H34.1904V43.6424H32.8904ZM57.955 11.2201C51.8926 4.53994 43.1993 0.35 33.5394 0.35V1.65C42.814 1.65 51.1635 5.67097 56.9923 12.0938L57.955 11.2201ZM33.5394 0.35C15.2009 0.35 0.35 15.4476 0.35 34.0487H1.65C1.65 16.1465 15.9378 1.65 33.5394 1.65V0.35ZM0.35 34.0487C0.35 52.6497 15.2009 67.7484 33.5404 67.7484V66.4484C15.9378 66.4484 1.65 51.9509 1.65 34.0487H0.35ZM33.5404 67.7484C51.88 67.7484 66.7309 52.6497 66.7309 34.0487H65.4309C65.4309 51.9509 51.1431 66.4484 33.5404 66.4484V67.7484ZM66.7309 34.0487C66.7309 27.5988 64.946 21.5709 61.8514 16.4484L60.7387 17.1206C63.7137 22.0452 65.4309 27.8415 65.4309 34.0487H66.7309ZM61.8162 16.3961L57.9948 11.2685L56.9525 12.0453L60.7739 17.173L61.8162 16.3961ZM53.4783 15.7277C50.9581 12.8964 47.8815 10.6336 44.4467 9.08639L43.9128 10.2717C47.1798 11.7433 50.1078 13.8963 52.5072 16.592L53.4783 15.7277ZM44.4467 9.08639C41.0119 7.53915 37.2958 6.74202 33.5386 6.74689L33.5403 8.04689C37.1123 8.04226 40.6459 8.80006 43.9128 10.2717L44.4467 9.08639ZM33.5394 6.74689C18.6771 6.74689 6.64702 18.9789 6.64702 34.0487H7.94702C7.94702 19.6778 19.414 8.04689 33.5394 8.04689V6.74689ZM6.64702 34.0487C6.64702 49.1195 18.6771 61.3515 33.5394 61.3515V60.0515C19.414 60.0515 7.94702 48.4206 7.94702 34.0487H6.64702ZM33.5394 61.3515C48.4017 61.3515 60.4318 49.1195 60.4318 34.0487H59.1318C59.1318 48.4206 47.6649 60.0515 33.5394 60.0515V61.3515ZM60.4318 34.0487C60.4318 29.3882 59.2813 25.0011 57.2535 21.1617L56.104 21.7688C58.0351 25.4252 59.1318 29.6044 59.1318 34.0487H60.4318ZM57.2126 21.0943L53.5266 15.789L52.459 16.5308L56.145 21.8361L57.2126 21.0943ZM56.1339 42.3111C56.1339 44.5694 54.3328 46.3827 52.1345 46.3827V47.6827C55.0693 47.6827 57.4339 45.2686 57.4339 42.3111H56.1339ZM52.1341 46.3827C51.0783 46.3835 50.0631 45.9576 49.3125 45.1951L48.3861 46.1072C49.3789 47.1156 50.7271 47.6837 52.135 47.6827L52.1341 46.3827ZM49.3125 45.1951C48.5615 44.4323 48.1371 43.3949 48.1362 42.3105L46.8362 42.3116C46.8374 43.7336 47.3937 45.0991 48.3861 46.1072L49.3125 45.1951ZM48.1362 42.3111C48.1362 40.0526 49.9374 38.2394 52.1345 38.2394V36.9394C49.2006 36.9394 46.8362 39.3535 46.8362 42.3111H48.1362ZM52.1351 38.2394C52.6582 38.2389 53.1765 38.3432 53.6606 38.5467L54.1644 37.3483C53.5209 37.0778 52.8309 36.9387 52.1339 36.9394L52.1351 38.2394ZM53.6606 38.5467C54.1447 38.7502 54.5854 39.049 54.9572 39.4266L55.8836 38.5145C55.3919 38.0152 54.8078 37.6188 54.1644 37.3483L53.6606 38.5467ZM54.9572 39.4266C55.3291 39.8043 55.6248 40.2533 55.8269 40.7485L57.0305 40.2572C56.7647 39.606 56.3752 39.0138 55.8836 38.5145L54.9572 39.4266ZM55.8269 40.7485C56.029 41.2436 56.1334 41.7748 56.1339 42.3116L57.4339 42.3105C57.4333 41.606 57.2963 40.9084 57.0305 40.2572L55.8269 40.7485ZM52.1345 46.3827C50.0424 46.3827 48.1729 47.0348 46.8549 47.6589L47.4111 48.8338C48.6297 48.2569 50.3029 47.6827 52.1345 47.6827V46.3827ZM46.8502 47.6611C46.1453 48.0017 45.552 48.5387 45.1386 49.2077L46.2444 49.8912C46.5291 49.4305 46.9359 49.0635 47.4158 48.8316L46.8502 47.6611ZM45.1386 49.2077C44.7251 49.8767 44.5081 50.6506 44.5118 51.4389L45.8118 51.4328C45.8092 50.8867 45.9597 50.3519 46.2444 49.8912L45.1386 49.2077ZM44.5118 51.4358V58.836H45.8118V51.4358H44.5118ZM44.5118 58.8368C44.5129 59.6321 44.8241 60.3967 45.3807 60.962L46.307 60.0498C45.9918 59.7297 45.8124 59.293 45.8118 58.8351L44.5118 58.8368ZM45.3807 60.962C45.9377 61.5276 46.695 61.8472 47.4868 61.8468L47.4862 60.5468C47.0462 60.547 46.6219 60.3696 46.307 60.0498L45.3807 60.962ZM46.8365 61.1968V70.6391H48.1365V61.1968H46.8365ZM46.8365 70.6397C46.8369 71.0338 46.9135 71.4243 47.0623 71.7889L48.2659 71.2976C48.1808 71.089 48.1367 70.8651 48.1365 70.6386L46.8365 70.6397ZM47.0623 71.7889C47.2111 72.1535 47.4294 72.4854 47.7051 72.7654L48.6314 71.8533C48.4754 71.6949 48.351 71.5062 48.2659 71.2976L47.0623 71.7889ZM47.7051 72.7654C47.9809 73.0455 48.3088 73.2681 48.6703 73.4201L49.1741 72.2217C48.9719 72.1367 48.7874 72.0117 48.6314 71.8533L47.7051 72.7654ZM48.6703 73.4201C49.0319 73.5721 49.4198 73.6503 49.8118 73.65L49.8106 72.35C49.5925 72.3502 49.3763 72.3067 49.1741 72.2217L48.6703 73.4201ZM49.8112 73.65H54.4595V72.35H49.8112V73.65ZM54.4589 73.65C54.8509 73.6503 55.2388 73.5721 55.6004 73.4201L55.0966 72.2217C54.8945 72.3067 54.6782 72.3502 54.4601 72.35L54.4589 73.65ZM55.6004 73.4201C55.962 73.2681 56.2899 73.0455 56.5656 72.7654L55.6393 71.8533C55.4834 72.0117 55.2989 72.1367 55.0966 72.2217L55.6004 73.4201ZM56.5656 72.7654C56.8414 72.4854 57.0596 72.1535 57.2084 71.7889L56.0048 71.2976C55.9197 71.5062 55.7953 71.6949 55.6393 71.8533L56.5656 72.7654ZM57.2084 71.7889C57.3572 71.4243 57.4339 71.0338 57.4342 70.6397L56.1342 70.6386C56.134 70.8651 56.09 71.089 56.0048 71.2976L57.2084 71.7889ZM57.4342 70.6391V61.1958H56.1342V70.6391H57.4342ZM56.7842 61.8458C57.5756 61.8458 58.3324 61.5262 58.889 60.9609L57.9627 60.0488C57.648 60.3684 57.2239 60.5458 56.7842 60.5458L56.7842 61.8458ZM58.889 60.9609C59.4452 60.396 59.7565 59.632 59.7579 58.8371L58.4579 58.8348C58.4571 59.2925 58.2777 59.7288 57.9627 60.0488L58.889 60.9609ZM59.7579 58.836V51.4348H58.4579V58.836H59.7579ZM59.7579 51.4379C59.7616 50.6495 59.5446 49.8756 59.1311 49.2067L58.0253 49.8901C58.31 50.3509 58.4605 50.8856 58.4579 51.4317L59.7579 51.4379ZM59.1311 49.2067C58.7176 48.5376 58.1244 48.0006 57.4195 47.66L56.8539 48.8305C57.3338 49.0625 57.7406 49.4295 58.0253 49.8901L59.1311 49.2067ZM57.4146 47.6577C56.098 47.0349 54.2281 46.3817 52.1348 46.3817V47.6817C53.9674 47.6817 55.6409 48.2568 56.8588 48.8329L57.4146 47.6577ZM51.518 46.8269L51.5176 46.8279L52.7514 47.2376L52.7517 47.2366L51.518 46.8269ZM70.0805 42.3111C70.0805 44.5695 68.2804 46.3827 66.0811 46.3827V47.6827C69.0171 47.6827 71.3805 45.2686 71.3805 42.3111H70.0805ZM66.0805 46.3827C65.5575 46.3832 65.0392 46.2789 64.5552 46.0754L64.0514 47.2738C64.6949 47.5443 65.3848 47.6834 66.0817 47.6827L66.0805 46.3827ZM64.5552 46.0754C64.0712 45.8719 63.6306 45.5731 63.2588 45.1955L62.3324 46.1075C62.8239 46.6068 63.408 47.0033 64.0514 47.2738L64.5552 46.0754ZM63.2588 45.1955C62.887 44.8178 62.5914 44.3687 62.3894 43.8736L61.1857 44.3647C61.4514 45.0159 61.8409 45.6082 62.3324 46.1075L63.2588 45.1955ZM62.3894 43.8736C62.1874 43.3785 62.0831 42.8474 62.0828 42.3106L60.7828 42.3115C60.7832 43.0159 60.9201 43.7135 61.1857 44.3647L62.3894 43.8736ZM62.0828 42.3111C62.0828 40.0525 63.883 38.2394 66.0811 38.2394V36.9394C63.1461 36.9394 60.7828 39.3536 60.7828 42.3111H62.0828ZM66.0817 38.2394C66.6047 38.2389 67.123 38.3432 67.607 38.5467L68.1108 37.3483C67.4674 37.0778 66.7774 36.9387 66.0805 36.9394L66.0817 38.2394ZM67.607 38.5467C68.0911 38.7502 68.5317 39.049 68.9034 39.4266L69.8298 38.5146C69.3383 38.0153 68.7543 37.6188 68.1108 37.3483L67.607 38.5467ZM68.9034 39.4266C69.2752 39.8043 69.5708 40.2533 69.7728 40.7485L70.9765 40.2574C70.7108 39.6062 70.3214 39.0139 69.8298 38.5146L68.9034 39.4266ZM69.7728 40.7485C69.9748 41.2436 70.0791 41.7747 70.0795 42.3115L71.3795 42.3106C71.379 41.6062 71.2422 40.9086 70.9765 40.2574L69.7728 40.7485ZM70.7295 42.9611H70.7305V41.6611H70.7295V42.9611ZM66.0811 46.3827C63.989 46.3827 62.119 47.0348 60.801 47.6589L61.3573 48.8338C62.5758 48.2569 64.2495 47.6827 66.0811 47.6827V46.3827ZM60.7963 47.6611C60.0914 48.0017 59.4982 48.5387 59.0847 49.2077L60.1905 49.8912C60.4752 49.4305 60.882 49.0635 61.3619 48.8316L60.7963 47.6611ZM59.0847 49.2077C58.6713 49.8767 58.4542 50.6506 58.4579 51.4389L59.7579 51.4328C59.7554 50.8867 59.9058 50.3519 60.1905 49.8912L59.0847 49.2077ZM58.4579 51.4358L58.4579 58.836L59.7579 58.836L59.7579 51.4359L58.4579 51.4358ZM58.4579 58.8365C58.4582 59.2308 58.535 59.6212 58.6837 59.9857L59.8873 59.4944C59.8022 59.2858 59.7581 59.0618 59.7579 58.8354L58.4579 58.8365ZM58.6837 59.9857C58.8326 60.3503 59.0508 60.6822 59.3265 60.9623L60.2528 60.0501C60.0968 59.8917 59.9725 59.703 59.8873 59.4944L58.6837 59.9857ZM59.3265 60.9623C59.6023 61.2423 59.9302 61.465 60.2918 61.617L60.7955 60.4185C60.5933 60.3335 60.4088 60.2085 60.2528 60.0501L59.3265 60.9623ZM60.2918 61.617C60.6534 61.769 61.0413 61.8472 61.4332 61.8468L61.432 60.5468C61.214 60.547 60.9977 60.5035 60.7955 60.4185L60.2918 61.617ZM60.7826 61.1968V70.6391H62.0826V61.1968H60.7826ZM60.7826 70.64C60.7837 71.4353 61.0949 72.1999 61.6515 72.7651L62.5778 71.853C62.2626 71.5329 62.0832 71.0962 62.0826 70.6383L60.7826 70.64ZM61.6515 72.7651C62.2085 73.3307 62.9658 73.6503 63.7576 73.65L63.757 72.35C63.317 72.3502 62.8927 72.1728 62.5778 71.853L61.6515 72.7651ZM63.7573 73.65H68.4057V72.35H63.7573V73.65ZM68.4054 73.65C69.1972 73.6503 69.9544 73.3307 70.5112 72.765L69.5847 71.8531C69.27 72.1728 68.8458 72.3502 68.4059 72.35L68.4054 73.65ZM70.5112 72.765C71.0676 72.1996 71.3786 71.435 71.3793 70.6397L70.0793 70.6386C70.0789 71.0963 69.8997 71.533 69.5847 71.8531L70.5112 72.765ZM71.3793 70.6391V61.1958H70.0793V70.6391H71.3793ZM70.7284 61.8458C71.1204 61.8463 71.5083 61.7683 71.87 61.6164L71.3668 60.4178C71.1645 60.5027 70.9483 60.5461 70.7302 60.5458L70.7284 61.8458ZM71.87 61.6164C72.2316 61.4646 72.5596 61.2421 72.8355 60.9622L71.9096 60.0496C71.7536 60.208 71.569 60.3329 71.3668 60.4178L71.87 61.6164ZM72.8355 60.9622C73.1114 60.6823 73.3298 60.3504 73.4787 59.9859L72.2754 59.4941C72.1901 59.7026 72.0657 59.8913 71.9096 60.0496L72.8355 60.9622ZM73.4787 59.9859C73.6277 59.6214 73.7045 59.231 73.705 58.8368L72.405 58.8351C72.4047 59.0616 72.3606 59.2855 72.2754 59.4941L73.4787 59.9859ZM73.705 58.836V51.4348H72.405V58.836H73.705ZM73.705 51.4378C73.7086 50.6493 73.4914 49.8753 73.0778 49.2063L71.9721 49.89C72.257 50.3508 72.4075 50.8856 72.405 51.4318L73.705 51.4378ZM73.0778 49.2063C72.6641 48.5373 72.0705 48.0004 71.3654 47.6599L70.8002 48.8306C71.2803 49.0624 71.6872 49.4294 71.9721 49.89L73.0778 49.2063ZM71.3607 47.6577C70.044 47.0349 68.1732 46.3817 66.081 46.3817V47.6817C67.9125 47.6817 69.5871 48.2568 70.8049 48.8329L71.3607 47.6577ZM65.4392 47.1346L65.4393 47.1356L66.7229 46.9299L66.7228 46.9289L65.4392 47.1346ZM84.0253 42.3111C84.0253 44.5697 82.226 46.3827 80.027 46.3827V47.6827C82.9631 47.6827 85.3253 45.2684 85.3253 42.3111H84.0253ZM80.0264 46.3827C79.5034 46.3832 78.9851 46.2789 78.5011 46.0754L77.9973 47.2738C78.6407 47.5443 79.3307 47.6834 80.0276 47.6827L80.0264 46.3827ZM78.5011 46.0754C78.0171 45.8719 77.5764 45.5731 77.2047 45.1955L76.2783 46.1075C76.7698 46.6068 77.3538 47.0033 77.9973 47.2738L78.5011 46.0754ZM77.2047 45.1955C76.8329 44.8178 76.5373 44.3687 76.3353 43.8736L75.1316 44.3647C75.3973 45.0159 75.7868 45.6082 76.2783 46.1075L77.2047 45.1955ZM76.3353 43.8736C76.1333 43.3785 76.029 42.8474 76.0287 42.3106L74.7287 42.3115C74.7291 43.0159 74.866 43.7135 75.1316 44.3647L76.3353 43.8736ZM76.0287 42.3111C76.0287 40.0524 77.828 38.2394 80.027 38.2394V36.9394C77.0908 36.9394 74.7287 39.3537 74.7287 42.3111H76.0287ZM80.0276 38.2394C80.5506 38.2389 81.0689 38.3432 81.5529 38.5467L82.0567 37.3483C81.4133 37.0778 80.7233 36.9387 80.0264 36.9394L80.0276 38.2394ZM81.5529 38.5467C82.0369 38.7502 82.4776 39.049 82.8493 39.4266L83.7757 38.5146C83.2842 38.0153 82.7002 37.6188 82.0567 37.3483L81.5529 38.5467ZM82.8493 39.4266C83.2211 39.8043 83.5167 40.2533 83.7187 40.7485L84.9224 40.2574C84.6567 39.6062 84.2672 39.0139 83.7757 38.5146L82.8493 39.4266ZM83.7187 40.7485C83.9207 41.2436 84.025 41.7747 84.0253 42.3115L85.3253 42.3106C85.3249 41.6062 85.188 40.9086 84.9224 40.2574L83.7187 40.7485ZM80.027 46.3827C77.9349 46.3827 76.0649 47.0348 74.7469 47.6589L75.3031 48.8338C76.5216 48.2569 78.1954 47.6827 80.027 47.6827V46.3827ZM74.7422 47.6611C74.0373 48.0017 73.444 48.5387 73.0306 49.2077L74.1364 49.8912C74.4211 49.4305 74.8279 49.0635 75.3078 48.8316L74.7422 47.6611ZM73.0306 49.2077C72.6171 49.8767 72.4001 50.6506 72.4038 51.4389L73.7038 51.4328C73.7012 50.8867 73.8517 50.3519 74.1364 49.8912L73.0306 49.2077ZM72.4038 51.4358V58.836H73.7038V51.4358H72.4038ZM72.4038 58.8365C72.4042 59.2307 72.4808 59.6211 72.6296 59.9857L73.8332 59.4944C73.7481 59.2859 73.704 59.0619 73.7038 58.8354L72.4038 58.8365ZM72.6296 59.9857C72.7784 60.3503 72.9967 60.6822 73.2724 60.9623L74.1987 60.0501C74.0427 59.8917 73.9183 59.703 73.8332 59.4944L72.6296 59.9857ZM73.2724 60.9623C73.5482 61.2423 73.876 61.465 74.2376 61.617L74.7414 60.4185C74.5392 60.3335 74.3547 60.2085 74.1987 60.0501L73.2724 60.9623ZM74.2376 61.617C74.5993 61.769 74.9872 61.8472 75.3791 61.8468L75.3779 60.5468C75.1598 60.547 74.9436 60.5035 74.7414 60.4185L74.2376 61.617ZM74.7285 61.1968V70.6391H76.0285V61.1968H74.7285ZM74.7285 70.64C74.7296 71.4351 75.0406 72.1995 75.5969 72.7647L76.5234 71.8527C76.2084 71.5326 76.0291 71.096 76.0285 70.6383L74.7285 70.64ZM75.5969 72.7647C76.1536 73.3302 76.9105 73.65 77.7022 73.65L77.7022 72.35C77.2623 72.35 76.8381 72.1725 76.5234 71.8527L75.5969 72.7647ZM77.7022 73.65H82.3515V72.35H77.7022V73.65ZM82.3512 73.65C83.143 73.6503 83.9003 73.3307 84.4571 72.765L83.5306 71.8531C83.2159 72.1728 82.7917 72.3502 82.3518 72.35L82.3512 73.65ZM84.4571 72.765C85.0135 72.1996 85.3245 71.435 85.3252 70.6397L84.0252 70.6386C84.0248 71.0963 83.8456 71.533 83.5306 71.8531L84.4571 72.765ZM85.3252 70.6391V61.1958H84.0252V70.6391H85.3252ZM84.6746 61.8458C85.4664 61.8465 86.2238 61.5271 86.7808 60.9617L85.8547 60.0494C85.5399 60.3689 85.1156 60.5462 84.6758 60.5458L84.6746 61.8458ZM86.7808 60.9617C87.3375 60.3966 87.6488 59.6321 87.6499 58.8368L86.3499 58.8351C86.3493 59.2929 86.1699 59.7294 85.8547 60.0494L86.7808 60.9617ZM87.6499 58.836V51.4348H86.3499V58.836H87.6499ZM87.6499 51.4379C87.6536 50.6495 87.4365 49.8756 87.0231 49.2067L85.9173 49.8901C86.202 50.3509 86.3525 50.8856 86.3499 51.4317L87.6499 51.4379ZM87.0231 49.2067C86.6096 48.5376 86.0164 48.0006 85.3115 47.66L84.7459 48.8305C85.2258 49.0625 85.6326 49.4295 85.9173 49.8901L87.0231 49.2067ZM85.3066 47.6577C83.9899 47.0349 82.1191 46.3817 80.0268 46.3817V47.6817C81.8584 47.6817 83.533 48.2568 84.7508 48.8329L85.3066 47.6577ZM79.3843 47.1298L79.3844 47.1308L80.6695 46.9346L80.6694 46.9336L79.3843 47.1298Z" fill="#62E0D9"/>
</svg>
